<svg xmlns="http://www.w3.org/2000/svg" version="1.1" xmlns:xlink="http://www.w3.org/1999/xlink" xmlns:svgjs="http://svgjs.dev/svgjs" width="1000" height="121" viewBox="0 0 1000 121"><g transform="matrix(1,0,0,1,-0.6060606060606233,0.20074947987136937)"><svg viewBox="0 0 396 48" data-background-color="#ffffff" preserveAspectRatio="xMidYMid meet" height="121" width="1000" xmlns="http://www.w3.org/2000/svg" xmlns:xlink="http://www.w3.org/1999/xlink"><g id="tight-bounds" transform="matrix(1,0,0,1,0.2400000000000091,-0.07963615669521573)"><svg viewBox="0 0 395.52 48.159271945428756" height="48.159271945428756" width="395.52"><g><svg viewBox="0 0 797.9523021298005 97.16019902343749" height="48.159271945428756" width="395.52"><g><svg viewBox="0 0 797.9523021298005 97.16019902343749" height="97.16019902343749" width="797.9523021298005"><g id="textblocktransform"><svg viewBox="0 0 797.9523021298005 97.16019902343749" height="97.16019902343749" width="797.9523021298005" id="textblock"><g><svg viewBox="0 0 797.9523021298005 63.75615234374999" height="63.75615234374999" width="797.9523021298005"><g><svg><g></g><g></g></svg></g><g><svg><g><svg></svg></g><g></g></svg></g><g id="text-0"><svg viewBox="0 0 797.9523021298005 63.75615234374999" height="63.75615234374999" width="797.9523021298005"><g transform="matrix(1,0,0,1,0,12.322412109374994)"><svg width="372.1923828125" viewBox="-0.39000001549720764 -37.54999923706055 372.1700134277344 39.11000061035156" height="39.111328125" data-palette-color="#1ebbd7"><path d="M-0.39-29.25L-0.39-29.25Q-0.39-29.69-0.34-30.55-0.29-31.42-0.29-31.74L-0.29-31.74Q-0.29-31.86-0.34-32.62-0.39-33.37-0.39-33.94L-0.39-33.94Q-0.39-36.52 0.1-36.52L0.1-36.52Q0.29-36.52 0.44-36.47L0.44-36.47Q5.54-36.47 15.56-36.6 25.59-36.72 30.57-36.72L30.57-36.72Q31.81-36.72 32.14-36.5 32.47-36.28 32.47-35.64L32.47-35.64 32.47-34.96Q32.47-33.69 32.5-31.21 32.52-28.74 32.52-27.44L32.52-27.44Q32.52-26.17 31.84-26.17L31.84-26.17Q30.47-26.17 27.76-26.22 25.05-26.27 23.68-26.27L23.68-26.27 23.68-0.1Q23.51 0.63 22.85 0.68L22.85 0.68Q22 0.68 20.36 0.66 18.73 0.63 17.87 0.63L17.87 0.63Q17.82 0.63 17.77 0.68L17.77 0.68Q16.7 0.68 14.76 0.66 12.82 0.63 11.87 0.63L11.87 0.63 10.4 0.63Q9.91 0.68 8.98 0.68L8.98 0.68 8.01-0.49Q8.01-4.2 8.25-11.52 8.5-18.85 8.5-22.56L8.5-22.56Q8.5-22.73 8.48-23.12 8.47-23.51 8.47-23.75 8.47-24 8.44-24.37 8.4-24.73 8.31-24.96 8.23-25.2 8.11-25.43 7.98-25.66 7.78-25.77 7.57-25.88 7.28-25.88L7.28-25.88 0.29-25.88Q-0.39-26.07-0.39-29.25ZM49.95 0.63L34.18 0.63Q34.27-6.47 34.52-9.77L34.52-9.77Q34.52-20.02 34.81-30.57L34.81-30.57Q34.71-32.62 34.71-33.59L34.71-33.59 34.71-34.33Q34.62-35.4 34.62-36.08L34.62-36.08Q34.62-36.55 35.06-36.91L35.06-36.91Q39.06-36.62 47.26-36.62L47.26-36.62Q49.22-36.62 49.95-36.72L49.95-36.72 49.95 0.63ZM91.04-35.69L91.04-35.69Q89.5-32.62 85.29-24.65 81.07-16.67 78.93-12.21L78.93-12.21 78.93 0Q78.8 0.42 78.61 0.6 78.41 0.78 77.95 0.78L77.95 0.78Q75.65 0.78 71.13 0.83 66.6 0.88 64.18 0.88L64.18 0.88Q63.3 0 63.3-1.17L63.3-1.17Q63.4-1.71 63.42-2.39 63.45-3.08 63.42-4.13 63.4-5.18 63.4-5.47L63.4-5.47 63.4-7.23Q63.4-13.06 60.96-17.72L60.96-17.72Q60.59-18.48 60.19-19.31 59.79-20.14 59.42-20.92 59.05-21.7 58.66-22.51 58.27-23.32 57.89-24.12 57.51-24.93 57.15-25.71 56.78-26.49 56.38-27.32 55.98-28.15 55.59-28.91L55.59-28.91 51.41-35.91Q51.41-36.23 51.92-36.5 52.44-36.77 52.95-36.77L52.95-36.77 59.1-36.77Q60.37-36.77 62.92-36.74 65.47-36.72 66.72-36.72L66.72-36.72Q67.06-36.67 67.48-36.01 67.89-35.35 68.34-34.23 68.79-33.11 69.23-31.85 69.67-30.59 70.11-29.08 70.55-27.56 70.88-26.42 71.21-25.27 71.54-24.07 71.87-22.88 71.97-22.51L71.97-22.51 76.44-36.82 90.2-36.82Q90.55-36.77 90.72-36.54 90.89-36.3 91.04-35.69ZM142.28-13.09L142.28-13.09Q141.86-9.42 140.35-6.6 138.83-3.78 136.46-2.01 134.1-0.24 131.08 0.66 128.07 1.56 124.5 1.56L124.5 1.56Q121.18 1.56 118.45 0.84 115.71 0.12 113.83-1.07 111.95-2.27 110.51-3.99 109.07-5.71 108.22-7.53 107.36-9.35 106.84-11.51 106.31-13.67 106.13-15.54 105.95-17.41 105.95-19.43L105.95-19.43 105.95-21.58Q106.19-25.15 107.61-27.99 109.02-30.83 111.05-32.58 113.08-34.33 115.69-35.49 118.3-36.65 120.77-37.1 123.23-37.55 125.67-37.55L125.67-37.55Q129.6-37.55 132.62-36.61 135.63-35.67 137.54-33.96 139.44-32.25 140.52-30.04 141.59-27.83 141.88-25.1L141.88-25.1 141.88-22.75Q141.88-21.97 136.51-21.97L136.51-21.97Q135.24-21.97 132.99-22.02 130.73-22.07 130.02-22.07L130.02-22.07Q129.9-22.07 129.65-22.05 129.41-22.02 129.29-22.02L129.29-22.02Q128.65-22.02 128.32-22.55 127.99-23.07 127.88-23.83 127.77-24.58 127.61-25.34 127.46-26.1 126.96-26.62 126.45-27.15 125.58-27.15 124.7-27.15 124.04-26.86 123.38-26.56 122.99-25.94 122.6-25.32 122.34-24.68 122.08-24.05 121.97-23.03 121.87-22.02 121.83-21.33 121.79-20.63 121.77-19.47 121.74-18.31 121.72-17.77L121.72-17.77Q121.72-17.48 121.67-16.7 121.62-15.92 121.62-15.43L121.62-15.43Q121.62-9.35 124.84-9.18L124.84-9.18Q125.72-9.18 126.28-9.81 126.85-10.45 127.05-11.23 127.26-12.01 127.53-12.88 127.8-13.75 128.12-14.06L128.12-14.06 141.4-14.06Q142.2-13.99 142.28-13.09ZM141.78 0L141.78 0Q143.3-5.59 145.13-11.35 146.96-17.11 149.68-25.13 152.4-33.15 153.41-36.23L153.41-36.23Q153.7-36.72 153.8-36.82L153.8-36.82 157.9-36.82Q159.34-36.82 162.15-36.87 164.95-36.91 166.39-36.91L166.39-36.91 170.5-36.91Q170.86-36.91 171.11-36.9 171.35-36.89 171.69-36.84 172.03-36.79 172.24-36.69 172.45-36.6 172.59-36.4 172.74-36.21 172.74-35.94L172.74-35.94 184-0.27Q184 0.22 183.64 0.4 183.29 0.59 182.31 0.59L182.31 0.59 180.07 0.59Q179.09 0.59 177.16 0.61 175.23 0.63 174.26 0.63L174.26 0.63Q173.96 0.63 173.07 0.67 172.18 0.71 171.57 0.7 170.96 0.68 170.21 0.62 169.47 0.56 169.02 0.35 168.57 0.15 168.44-0.2L168.44-0.2 168.44-1.81Q168.2-3.03 167.59-4.05 166.98-5.08 166.3-5.08L166.3-5.08 157.9-5.08 156.63 0.1Q156.36 0.68 153.89 0.68L153.89 0.68 151.94 0.68Q150.89 0.68 148.82 0.76 146.74 0.83 145.69 0.83L145.69 0.83 145.01 0.83Q144.62 0.83 143.77 0.85 142.93 0.88 142.47 0.88L142.47 0.88Q142.27 0.68 141.78 0ZM160.68-23.29L158.73-14.82 159.41-13.67 161.02-13.67Q162.98-13.67 164.6-13.9 166.22-14.14 166.22-14.65L166.22-14.65 163.07-28.71Q162.63-28.71 161.89-27.05 161.14-25.39 160.68-23.29L160.68-23.29ZM185.48-3.32L185.48-3.32 185.48-35.84Q185.48-36.01 185.64-36.13 185.8-36.25 186.14-36.3 186.48-36.35 186.74-36.38 187-36.4 187.47-36.41 187.95-36.43 188.12-36.43L188.12-36.43 207.94-36.43Q210.39-36.43 212.56-35.66 214.73-34.89 216.42-33.42 218.1-31.96 219.08-29.64 220.05-27.32 220.05-24.41L220.05-24.41Q220.05-22.27 219.55-20.48 219.05-18.7 218.23-17.44 217.42-16.19 216.23-15.19 215.05-14.18 213.82-13.57 212.58-12.96 211.09-12.54 209.6-12.11 208.35-11.91 207.09-11.72 205.7-11.62L205.7-11.62 201.01-11.62Q200.82-7.79 200.82-3.03L200.82-3.03 200.82-0.29Q200.74 0.59 199.99 0.59L199.99 0.59 186.12 0.59Q185.48-1.1 185.48-3.32ZM199.25-20.41L199.25-20.41 200.03-19.34Q201.03-19.34 201.95-19.48 202.87-19.63 203.74-20 204.62-20.36 205.26-20.94 205.89-21.51 206.28-22.4 206.67-23.29 206.67-24.41L206.67-24.41Q206.67-25.27 206.44-25.94 206.21-26.61 205.88-27.04 205.55-27.47 204.98-27.78 204.4-28.1 203.9-28.26 203.4-28.42 202.63-28.5 201.86-28.59 201.36-28.6 200.86-28.61 200.08-28.61L200.08-28.61Q199.25-28.22 199.25-20.41ZM219.81-29.25L219.81-29.25Q219.81-29.69 219.86-30.55 219.9-31.42 219.9-31.74L219.9-31.74Q219.9-31.86 219.86-32.62 219.81-33.37 219.81-33.94L219.81-33.94Q219.81-36.52 220.3-36.52L220.3-36.52Q220.49-36.52 220.64-36.47L220.64-36.47Q225.74-36.47 235.76-36.6 245.78-36.72 250.76-36.72L250.76-36.72Q252.01-36.72 252.34-36.5 252.67-36.28 252.67-35.64L252.67-35.64 252.67-34.96Q252.67-33.69 252.69-31.21 252.72-28.74 252.72-27.44L252.72-27.44Q252.72-26.17 252.03-26.17L252.03-26.17Q250.67-26.17 247.96-26.22 245.25-26.27 243.88-26.27L243.88-26.27 243.88-0.1Q243.71 0.63 243.05 0.68L243.05 0.68Q242.19 0.68 240.56 0.66 238.92 0.63 238.07 0.63L238.07 0.63Q238.02 0.63 237.97 0.68L237.97 0.68Q236.9 0.68 234.96 0.66 233.01 0.63 232.06 0.63L232.06 0.63 230.6 0.63Q230.11 0.68 229.18 0.68L229.18 0.68 228.21-0.49Q228.21-4.2 228.45-11.52 228.69-18.85 228.69-22.56L228.69-22.56Q228.69-22.73 228.68-23.12 228.67-23.51 228.67-23.75 228.67-24 228.63-24.37 228.6-24.73 228.51-24.96 228.42-25.2 228.3-25.43 228.18-25.66 227.97-25.77 227.77-25.88 227.47-25.88L227.47-25.88 220.49-25.88Q219.81-26.07 219.81-29.25ZM289.68-13.09L289.68-13.09Q289.26-9.42 287.75-6.6 286.23-3.78 283.87-2.01 281.5-0.24 278.48 0.66 275.47 1.56 271.9 1.56L271.9 1.56Q268.58 1.56 265.85 0.84 263.11 0.12 261.23-1.07 259.36-2.27 257.91-3.99 256.47-5.71 255.62-7.53 254.77-9.35 254.24-11.51 253.72-13.67 253.53-15.54 253.35-17.41 253.35-19.43L253.35-19.43 253.35-21.58Q253.59-25.15 255.01-27.99 256.43-30.83 258.45-32.58 260.48-34.33 263.09-35.49 265.7-36.65 268.17-37.1 270.63-37.55 273.08-37.55L273.08-37.55Q277.01-37.55 280.02-36.61 283.04-35.67 284.94-33.96 286.85-32.25 287.92-30.04 288.99-27.83 289.29-25.1L289.29-25.1 289.29-22.75Q289.29-21.97 283.92-21.97L283.92-21.97Q282.65-21.97 280.39-22.02 278.13-22.07 277.42-22.07L277.42-22.07Q277.3-22.07 277.06-22.05 276.81-22.02 276.69-22.02L276.69-22.02Q276.05-22.02 275.72-22.55 275.4-23.07 275.29-23.83 275.18-24.58 275.02-25.34 274.86-26.1 274.36-26.62 273.86-27.15 272.98-27.15 272.1-27.15 271.44-26.86 270.78-26.56 270.39-25.94 270-25.32 269.74-24.68 269.49-24.05 269.38-23.03 269.27-22.02 269.23-21.33 269.19-20.63 269.17-19.47 269.15-18.31 269.12-17.77L269.12-17.77Q269.12-17.48 269.07-16.7 269.02-15.92 269.02-15.43L269.02-15.43Q269.02-9.35 272.25-9.18L272.25-9.18Q273.12-9.18 273.69-9.81 274.25-10.45 274.46-11.23 274.66-12.01 274.93-12.88 275.2-13.75 275.52-14.06L275.52-14.06 288.8-14.06Q289.6-13.99 289.68-13.09ZM302.03 0.63L299.15 0.63Q298.46 0.63 297.56 0.67 296.66 0.71 296.17 0.73 295.68 0.76 295.06 0.72 294.44 0.68 294.12 0.55 293.8 0.42 293.45 0.15 293.09-0.12 292.93-0.59 292.78-1.05 292.67-1.73 292.56-2.42 292.56-3.37L292.56-3.37Q292.56-8.64 292.75-17.76 292.95-26.88 292.95-31.15L292.95-31.15Q292.95-36.43 293.48-36.72L293.48-36.72 302.57-36.72Q304.98-36.72 306.17-36.44 307.35-36.16 307.74-35.6 308.13-35.03 308.13-33.89L308.13-33.89Q308.13-33.54 308.08-32.56 308.03-31.57 308.03-30.91L308.03-30.91 308.03-29.79Q308.03-29 307.96-27.44 307.89-25.88 307.89-25.1L307.89-25.1 307.89-24.61Q307.94-24.46 307.94-24.22L307.94-24.22 308.91-24.22Q309.33-24.22 310.18-24.19 311.04-24.17 311.45-24.17L311.45-24.17Q312.58-24.17 313.11-24.32L313.11-24.32 313.11-34.47Q313.11-35.69 313.23-36.22 313.36-36.74 313.58-36.88 313.8-37.01 314.38-37.01L314.38-37.01Q314.7-37.01 315.41-36.99 316.12-36.96 316.43-36.96L316.43-36.96 318.24-37.04Q320.07-37.11 321.51-37.11L321.51-37.11Q328.15-37.11 328.15-35.64L328.15-35.64Q328.15-35.25 328.18-34.52 328.2-33.79 328.2-33.4L328.2-33.4Q328.2-32.54 328.18-30.91 328.15-29.27 328.15-28.42L328.15-28.42Q328.15-25.88 328.22-20.85 328.3-15.82 328.3-13.28L328.3-13.28Q328.3-13.06 328.27-12.73 328.25-12.4 328.25-12.3L328.25-12.3 328.25-11.13Q328.25-9.57 328.3-8.79L328.3-8.79 328.3-8.25Q328.25-8.15 328.25-7.96L328.25-7.96Q328.25-6.67 328.3-4.03 328.35-1.39 328.35-0.1L328.35-0.1Q328.18 0.78 323.66 0.78L323.66 0.78 313.5 0.78 312.77-0.24 312.77-1.86Q312.77-3.49 312.79-6.69 312.82-9.89 312.82-11.52L312.82-11.52Q312.82-12.08 312.69-12.29 312.55-12.5 312.14-12.5L312.14-12.5 311.26-12.5Q309.6-12.5 308.23-12.3L308.23-12.3Q308.23-10.28 308.18-6.21 308.13-2.15 308.13-0.1L308.13-0.1Q307.84 0.63 302.03 0.63L302.03 0.63ZM329.56 0L329.56 0Q331.08-5.59 332.91-11.35 334.74-17.11 337.46-25.13 340.18-33.15 341.19-36.23L341.19-36.23Q341.48-36.72 341.58-36.82L341.58-36.82 345.68-36.82Q347.12-36.82 349.93-36.87 352.73-36.91 354.17-36.91L354.17-36.91 358.28-36.91Q358.64-36.91 358.89-36.9 359.13-36.89 359.47-36.84 359.81-36.79 360.02-36.69 360.23-36.6 360.38-36.4 360.52-36.21 360.52-35.94L360.52-35.94 371.78-0.27Q371.78 0.22 371.42 0.4 371.07 0.59 370.09 0.59L370.09 0.59 367.85 0.59Q366.87 0.59 364.94 0.61 363.01 0.63 362.04 0.63L362.04 0.63Q361.74 0.63 360.85 0.67 359.96 0.71 359.35 0.7 358.74 0.68 358 0.62 357.25 0.56 356.8 0.35 356.35 0.15 356.23-0.2L356.23-0.2 356.23-1.81Q355.98-3.03 355.37-4.05 354.76-5.08 354.08-5.08L354.08-5.08 345.68-5.08 344.41 0.1Q344.14 0.68 341.67 0.68L341.67 0.68 339.72 0.68Q338.67 0.68 336.6 0.76 334.52 0.83 333.47 0.83L333.47 0.83 332.79 0.83Q332.4 0.83 331.55 0.85 330.71 0.88 330.25 0.88L330.25 0.88Q330.05 0.68 329.56 0ZM348.46-23.29L346.51-14.82 347.19-13.67 348.8-13.67Q350.76-13.67 352.38-13.9 354-14.14 354-14.65L354-14.65 350.85-28.71Q350.41-28.71 349.67-27.05 348.93-25.39 348.46-23.29L348.46-23.29Z" opacity="1" transform="matrix(1,0,0,1,0,0)" fill="#1ebbd7" class="undefined-p-0"></path></svg></g><g><svg version="1.1" xmlns="http://www.w3.org/2000/svg" xmlns:xlink="http://www.w3.org/1999/xlink" x="387.24482421875" y="0" viewBox="0.8610019683837891 1.0230000019073486 99.9990005493164 98.95399475097656" enable-background="new 0.859 1.023 100 98.953" xml:space="preserve" width="64.42945056730048" height="63.75615234374999" class="icon-s-0" data-fill-palette-color="accent" id="s-0"><path d="M64.45 1.023H37.265v25.606H64.45V1.023L64.45 1.023zM44.258 18.443c-2.476 0-4.486-2.008-4.486-4.488 0-2.477 2.01-4.486 4.486-4.486 2.479 0 4.487 2.01 4.487 4.486C48.746 16.435 46.737 18.443 44.258 18.443zM57.457 18.443c-2.479 0-4.485-2.008-4.485-4.488 0-2.477 2.007-4.486 4.485-4.486s4.487 2.01 4.487 4.486C61.944 16.435 59.936 18.443 57.457 18.443zM95.212 57.515c-0.401-8.685-4.126-14.752-8.712-18.343-3.793-2.979-7.954-4.407-11.396-4.913v-3.126h-48.49v3.125c-3.444 0.506-7.608 1.935-11.399 4.915-4.592 3.59-8.311 9.655-8.708 18.339-3.285 1.152-5.646 4.243-5.646 7.915 0 4.644 3.761 8.413 8.411 8.415v-3.737c-2.582-0.003-4.669-2.096-4.678-4.68 0.008-2.585 2.095-4.677 4.678-4.681 2.586 0.004 4.671 2.095 4.677 4.681h3.739c-0.004-3.757-2.479-6.902-5.878-7.982 0.435-7.118 3.271-11.364 6.694-14.121 2.59-2.075 5.633-3.203 8.112-3.693v29.249h4.324v19.227c-4.894 1.731-8.405 6.388-8.405 11.872h25.214c0-5.486-3.516-10.141-8.405-11.872V68.877h23.034v19.227c-4.892 1.731-8.405 6.388-8.405 11.872h25.215c0-5.486-3.514-10.141-8.405-11.872V68.877h4.323V39.63c2.477 0.488 5.519 1.616 8.106 3.691 3.425 2.756 6.262 7.001 6.698 14.12-3.399 1.081-5.882 4.225-5.885 7.984h3.739c0.002-2.582 2.095-4.679 4.683-4.682 2.579 0.003 4.669 2.099 4.677 4.682-0.008 2.58-2.098 4.675-4.677 4.679v3.737c4.644-0.003 8.413-3.769 8.413-8.416C100.858 61.749 98.49 58.663 95.212 57.515zM47.242 56.384h-4.822v-4.821h4.822V56.384zM47.242 50.508h-4.822v-4.82h4.822V50.508zM53.267 56.384h-4.818v-4.821h4.818V56.384zM53.267 50.508h-4.818v-4.82h4.818V50.508zM59.294 56.384h-4.825v-4.821h4.825V56.384zM59.294 50.508h-4.825v-4.82h4.825V50.508zM74.857 10.338c0-3.781-3.067-6.848-6.847-6.848v13.699C71.79 17.189 74.857 14.121 74.857 10.338zM33.703 17.189V3.491c-3.781 0-6.845 3.067-6.845 6.848C26.858 14.121 29.922 17.189 33.703 17.189z" fill="#1ebbd7" data-fill-palette-color="accent"></path></svg></g><g transform="matrix(1,0,0,1,466.7267161923005,12.029443359374994)"><svg width="331.2255859375" viewBox="1.0299999713897705 -37.84000015258789 331.20001220703125 39.29999923706055" height="39.306640625" data-palette-color="#1ebbd7"><path d="M1.03-18.26L1.03-18.26Q1.03-21.63 1.78-24.44 2.54-27.25 3.8-29.2 5.05-31.15 6.82-32.67 8.59-34.18 10.47-35.1 12.35-36.01 14.51-36.6 16.67-37.18 18.55-37.39 20.43-37.6 22.36-37.6L22.36-37.6Q23.78-37.6 25.13-37.48 26.49-37.35 28.19-37.05 29.88-36.74 31.36-36.11 32.84-35.47 34.19-34.56 35.55-33.64 36.55-32.19 37.55-30.74 37.99-28.91L37.99-28.91Q38.11-28.2 38.48-24.9L38.48-24.9Q38.38-24.17 36.91-24.17L36.91-24.17Q34.81-24.17 30.81-24.27 26.81-24.37 24.8-24.37L24.8-24.37Q24.51-24.46 24.34-24.76 24.17-25.05 24.11-25.39 24.05-25.73 23.91-26.12 23.78-26.51 23.57-26.82 23.36-27.12 22.84-27.33 22.31-27.54 21.53-27.54L21.53-27.54Q20.51-27.54 19.7-27.19 18.9-26.83 18.38-26.32 17.87-25.81 17.5-24.93 17.14-24.05 16.96-23.33 16.77-22.61 16.67-21.5 16.58-20.39 16.56-19.75 16.55-19.12 16.55-18.07L16.55-18.07Q16.55-17.75 16.58-17.29 16.6-16.82 16.6-16.65L16.6-16.65 16.6-15.92Q16.6-15.14 16.63-14.62 16.65-14.11 16.76-13.31 16.87-12.5 17.07-11.95 17.26-11.4 17.64-10.78 18.02-10.16 18.57-9.78 19.12-9.4 19.95-9.14 20.78-8.89 21.83-8.89L21.83-8.89Q24.54-8.89 26.27-9.42L26.27-9.42 26.27-12.4 25.2-12.4 25.2-12.35 23.44-12.35Q23.24-12.35 22.74-12.33 22.24-12.3 21.92-12.3L21.92-12.3 21.04-13.28 21.04-20.02Q21.04-20.65 21.92-21.39L21.92-21.39 23.68-21.39Q25.51-21.39 28.13-21.34 30.74-21.29 32.13-21.29L32.13-21.29 34.08-21.29Q35.5-21.29 36.29-21.26 37.08-21.24 38.06-21.03 39.04-20.83 39.36-20.41L39.36-20.41Q39.36-17.21 39.21-11.08 39.06-4.96 39.06-2.2L39.06-2.2Q39.06-2.12 39.09-1.97 39.11-1.81 39.11-1.71L39.11-1.71 39.11-1.17Q38.28-0.2 33.69 0.54 29.1 1.27 25.98 1.27L25.98 1.27 25.34 1.27Q24.66 1.27 23.32 1.37 21.97 1.46 21.29 1.46L21.29 1.46Q11.45 1.46 6.24-3.8 1.03-9.06 1.03-18.26ZM43.26-0.88L43.26-0.88 43.26-1.81Q43.26-5.98 43.36-14.14 43.45-22.29 43.45-26.46L43.45-26.46 43.45-36.57 71.87-36.57 71.87-28.56Q71.87-28.49 71.87-28.2 71.87-27.91 71.87-27.81 71.87-27.71 71.85-27.45 71.82-27.2 71.76-27.1 71.7-27 71.59-26.82 71.48-26.64 71.34-26.56 71.19-26.49 70.94-26.43 70.7-26.37 70.41-26.37L70.41-26.37 69.72-26.37Q63.4-26.37 58.2-26.56L58.2-26.56Q58.15-26.17 58.04-25.35 57.93-24.54 57.87-23.91 57.81-23.29 57.81-22.71L57.81-22.71 69.43-22.71Q70.16-22.71 70.41-22.51 70.65-22.31 70.65-21.88L70.65-21.88Q70.65-21.75 70.63-21.48 70.6-21.22 70.6-21.09L70.6-21.09Q70.6-19.92 70.68-17.63 70.75-15.33 70.75-14.16L70.75-14.16Q70.68-13.67 70.36-13.67L70.36-13.67Q70.21-13.67 70.11-13.77L70.11-13.77Q62.4-13.38 58.69-13.38L58.69-13.38 58.05-13.38 58.05-9.86Q60.23-9.86 64.34-10.06 68.45-10.25 70.51-10.25L70.51-10.25Q72.12-10.25 72.36-9.57L72.36-9.57 72.36-7.71Q72.36-6.54 72.41-4.25 72.46-1.95 72.46-0.78L72.46-0.78Q72.46 0.44 71.48 0.44L71.48 0.44Q70.21 0.44 67.58 0.42 64.94 0.39 63.57 0.39L63.57 0.39Q60.06 0.39 53.51 0.57 46.97 0.76 44.04 0.78L44.04 0.78 43.36 0Q43.26-0.68 43.26-0.88ZM75.92 0.68L74.85 0.1 74.85-10.94Q74.8-16.99 75.24-34.03L75.24-34.03 75.24-36.04Q75.24-36.57 75.43-36.67L75.43-36.67 92.23-36.67Q92.48-36.67 93.22-34.81 93.96-32.96 95.03-30.04 96.09-27.12 96.53-26.03L96.53-26.03 99.95-17.09 99.95-26.56Q99.95-27.78 100.01-31.04 100.07-34.3 100.04-36.13L100.04-36.13Q100.04-36.82 103.95-36.82L103.95-36.82Q105.17-36.82 107.29-36.77 109.42-36.72 109.91-36.72L109.91-36.72 111.76-36.72Q112.15-36.72 112.15-36.57L112.15-36.57Q112.3-29.79 112.3-17.14L112.3-17.14 112.3-0.2Q112.13 0.44 110.74 0.44L110.74 0.44 110.1 0.44Q108.83 0.44 106.37 0.49 103.9 0.54 102.63 0.54L102.63 0.54 95.45 0.54Q95.11 0.42 94.04-2.54L94.04-2.54Q92.89-5.74 90.62-11.79 88.35-17.85 88.08-18.55L88.08-18.55Q88.08-17.11 88.06-14.26 88.03-11.4 88.03-9.96L88.03-9.96Q88.03-8.89 88.08-6.74 88.13-4.59 88.13-3.52L88.13-3.52 88.13-0.44Q88.13 0.68 87.15 0.68L87.15 0.68 75.92 0.68ZM112.15-36.52L112.15-36.62 112.15-36.52ZM117.28-0.88L117.28-0.88 117.28-1.81Q117.28-5.98 117.38-14.14 117.47-22.29 117.47-26.46L117.47-26.46 117.47-36.57 145.89-36.57 145.89-28.56Q145.89-28.49 145.89-28.2 145.89-27.91 145.89-27.81 145.89-27.71 145.87-27.45 145.84-27.2 145.78-27.1 145.72-27 145.61-26.82 145.5-26.64 145.35-26.56 145.21-26.49 144.96-26.43 144.72-26.37 144.43-26.37L144.43-26.37 143.74-26.37Q137.42-26.37 132.22-26.56L132.22-26.56Q132.17-26.17 132.06-25.35 131.95-24.54 131.89-23.91 131.83-23.29 131.83-22.71L131.83-22.71 143.45-22.71Q144.18-22.71 144.43-22.51 144.67-22.31 144.67-21.88L144.67-21.88Q144.67-21.75 144.65-21.48 144.62-21.22 144.62-21.09L144.62-21.09Q144.62-19.92 144.69-17.63 144.77-15.33 144.77-14.16L144.77-14.16Q144.69-13.67 144.38-13.67L144.38-13.67Q144.23-13.67 144.13-13.77L144.13-13.77Q136.42-13.38 132.71-13.38L132.71-13.38 132.07-13.38 132.07-9.86Q134.25-9.86 138.36-10.06 142.47-10.25 144.52-10.25L144.52-10.25Q146.14-10.25 146.38-9.57L146.38-9.57 146.38-7.71Q146.38-6.54 146.43-4.25 146.48-1.95 146.48-0.78L146.48-0.78Q146.48 0.44 145.5 0.44L145.5 0.44Q144.23 0.44 141.59 0.42 138.96 0.39 137.59 0.39L137.59 0.39Q134.07 0.39 127.53 0.57 120.99 0.76 118.06 0.78L118.06 0.78 117.38 0Q117.28-0.68 117.28-0.88ZM184.8 0.1L184.8 0.1Q184.27 0.63 182.55 0.73 180.82 0.83 178.31 0.68 175.8 0.54 175.62 0.54L175.62 0.54Q173.96 0.54 173.23 0.49L173.23 0.49 170.79 0.49Q170.25 0.32 169.89-1.11 169.52-2.54 169.17-5.21 168.81-7.89 168.79-8.06L168.79-8.06Q168.69-10.47 168.01-11.24 167.32-12.01 165.52-12.01L165.52-12.01 164.44-12.01 164.44-0.1Q164.39 0.2 163.93 0.39 163.47 0.59 162.6 0.65 161.73 0.71 161.06 0.72 160.39 0.73 159.29 0.71 158.19 0.68 157.95 0.68L157.95 0.68 154.43 0.68Q151.45 0.68 149.94 0.73L149.94 0.73Q149.6 0.59 149.26 0.39L149.26 0.39 149.26-36.04Q149.26-36.72 151.21-36.72L151.21-36.72 172.5-36.72Q178.04-36.57 180.93-34.08 183.83-31.59 183.83-27.05L183.83-27.05Q183.83-21.14 177.87-18.41L177.87-18.41Q178.97-18.07 179.85-17.46 180.73-16.85 181.31-16.15 181.9-15.45 182.34-14.48 182.78-13.5 183.02-12.65 183.27-11.79 183.45-10.62 183.63-9.45 183.71-8.59 183.78-7.74 183.89-6.56 184-5.37 184.07-4.69L184.07-4.69 184.07-2.54Q184.15-2.15 184.52-1.44 184.9-0.73 185-0.39L185-0.39Q185 0.1 184.8 0.1ZM164.3-26.37L164.3-26.37Q164.3-24.9 164.32-24.19 164.35-23.49 164.59-22.34 164.83-21.19 165.32-20.7L165.32-20.7Q166.35-20.7 167.26-20.92 168.18-21.14 169.03-21.63 169.89-22.12 170.39-23.08 170.89-24.05 170.89-25.39L170.89-25.39Q170.89-26.15 170.62-26.72 170.35-27.29 169.84-27.64 169.33-27.98 168.83-28.19 168.32-28.39 167.6-28.48 166.88-28.56 166.47-28.59 166.05-28.61 165.47-28.61L165.47-28.61 164.88-28.61Q164.52-28.44 164.41-27.93 164.3-27.42 164.3-26.37ZM183.83 0L183.83 0Q185.34-5.59 187.17-11.35 189-17.11 191.72-25.13 194.45-33.15 195.45-36.23L195.45-36.23Q195.74-36.72 195.84-36.82L195.84-36.82 199.94-36.82Q201.38-36.82 204.19-36.87 206.99-36.91 208.43-36.91L208.43-36.91 212.54-36.91Q212.9-36.91 213.15-36.9 213.39-36.89 213.73-36.84 214.07-36.79 214.28-36.69 214.49-36.6 214.64-36.4 214.78-36.21 214.78-35.94L214.78-35.94 226.04-0.27Q226.04 0.22 225.68 0.4 225.33 0.59 224.35 0.59L224.35 0.59 222.11 0.59Q221.13 0.59 219.2 0.61 217.27 0.63 216.3 0.63L216.3 0.63Q216 0.63 215.11 0.67 214.22 0.71 213.61 0.7 213 0.68 212.26 0.62 211.51 0.56 211.06 0.35 210.61 0.15 210.49-0.2L210.49-0.2 210.49-1.81Q210.24-3.03 209.63-4.05 209.02-5.08 208.34-5.08L208.34-5.08 199.94-5.08 198.67 0.1Q198.4 0.68 195.93 0.68L195.93 0.68 193.98 0.68Q192.93 0.68 190.86 0.76 188.78 0.83 187.73 0.83L187.73 0.83 187.05 0.83Q186.66 0.83 185.82 0.85 184.97 0.88 184.51 0.88L184.51 0.88Q184.31 0.68 183.83 0ZM202.72-23.29L200.77-14.82 201.45-13.67 203.06-13.67Q205.02-13.67 206.64-13.9 208.26-14.14 208.26-14.65L208.26-14.65 205.11-28.71Q204.68-28.71 203.93-27.05 203.19-25.39 202.72-23.29L202.72-23.29ZM221.86-29.25L221.86-29.25Q221.86-29.69 221.91-30.55 221.96-31.42 221.96-31.74L221.96-31.74Q221.96-31.86 221.91-32.62 221.86-33.37 221.86-33.94L221.86-33.94Q221.86-36.52 222.35-36.52L222.35-36.52Q222.54-36.52 222.69-36.47L222.69-36.47Q227.79-36.47 237.81-36.6 247.84-36.72 252.82-36.72L252.82-36.72Q254.06-36.72 254.39-36.5 254.72-36.28 254.72-35.64L254.72-35.64 254.72-34.96Q254.72-33.69 254.75-31.21 254.77-28.74 254.77-27.44L254.77-27.44Q254.77-26.17 254.09-26.17L254.09-26.17Q252.72-26.17 250.01-26.22 247.3-26.27 245.93-26.27L245.93-26.27 245.93-0.1Q245.76 0.63 245.1 0.68L245.1 0.68Q244.25 0.68 242.61 0.66 240.98 0.63 240.12 0.63L240.12 0.63Q240.07 0.63 240.02 0.68L240.02 0.68Q238.95 0.68 237.01 0.66 235.07 0.63 234.12 0.63L234.12 0.63 232.65 0.63Q232.16 0.68 231.24 0.68L231.24 0.68 230.26-0.49Q230.26-4.2 230.5-11.52 230.75-18.85 230.75-22.56L230.75-22.56Q230.75-22.73 230.73-23.12 230.72-23.51 230.72-23.75 230.72-24 230.69-24.37 230.65-24.73 230.56-24.96 230.48-25.2 230.36-25.43 230.23-25.66 230.03-25.77 229.82-25.88 229.53-25.88L229.53-25.88 222.54-25.88Q221.86-26.07 221.86-29.25ZM254.6-18.36L254.6-18.36 254.6-21.04Q254.84-24.46 256.09-27.28 257.33-30.1 259.25-32.03 261.16-33.96 263.68-35.29 266.19-36.62 268.94-37.23 271.69-37.84 274.62-37.84L274.62-37.84Q276.23-37.84 277.97-37.57 279.72-37.3 281.67-36.72 283.63-36.13 285.42-35 287.21-33.86 288.39-32.32L288.39-32.32Q290.8-29.37 291.89-26.14 292.98-22.9 292.98-18.95L292.98-18.95Q293.05-10.69 289.36-5.66L289.36-5.66 288.29-4.2Q286.87-2.25 284.24-0.94 281.6 0.37 278.96 0.87 276.33 1.37 273.64 1.37L273.64 1.37Q270.49 1.37 267.83 0.73 265.17 0.1 263.24-0.98 261.31-2.05 259.8-3.59 258.28-5.13 257.32-6.84 256.35-8.54 255.73-10.55 255.11-12.55 254.85-14.45 254.6-16.36 254.6-18.36ZM274.03-28.03L274.03-28.03Q273.03-28.03 272.24-27.56 271.44-27.1 270.94-26.44 270.44-25.78 270.08-24.67 269.71-23.56 269.54-22.67 269.37-21.78 269.27-20.42 269.17-19.07 269.16-18.32 269.15-17.58 269.15-16.41L269.15-16.41Q269.15-15.28 269.23-14.27 269.32-13.26 269.6-12.12 269.88-10.99 270.33-10.14 270.78-9.3 271.58-8.73 272.37-8.15 273.4-8.11L273.4-8.11Q274.47-8.11 275.3-8.46 276.13-8.81 276.69-9.36 277.25-9.91 277.64-10.84 278.03-11.77 278.24-12.62 278.45-13.48 278.56-14.75 278.67-16.02 278.69-16.93 278.72-17.85 278.72-19.24L278.72-19.24Q278.72-20.26 278.66-21.14 278.6-22.02 278.45-23.1 278.3-24.17 277.96-24.99 277.62-25.81 277.13-26.53 276.64-27.25 275.85-27.64 275.06-28.03 274.03-28.03ZM332.04 0.1L332.04 0.1Q331.5 0.63 329.78 0.73 328.06 0.83 325.54 0.68 323.03 0.54 322.86 0.54L322.86 0.54Q321.2 0.54 320.46 0.49L320.46 0.49 318.02 0.49Q317.48 0.32 317.12-1.11 316.75-2.54 316.4-5.21 316.04-7.89 316.02-8.06L316.02-8.06Q315.92-10.47 315.24-11.24 314.56-12.01 312.75-12.01L312.75-12.01 311.67-12.01 311.67-0.1Q311.63 0.2 311.16 0.39 310.7 0.59 309.83 0.65 308.96 0.71 308.29 0.72 307.62 0.73 306.52 0.71 305.42 0.68 305.18 0.68L305.18 0.68 301.66 0.68Q298.69 0.68 297.17 0.73L297.17 0.73Q296.83 0.59 296.49 0.39L296.49 0.39 296.49-36.04Q296.49-36.72 298.44-36.72L298.44-36.72 319.73-36.72Q325.27-36.57 328.17-34.08 331.06-31.59 331.06-27.05L331.06-27.05Q331.06-21.14 325.1-18.41L325.1-18.41Q326.2-18.07 327.08-17.46 327.96-16.85 328.54-16.15 329.13-15.45 329.57-14.48 330.01-13.5 330.25-12.65 330.5-11.79 330.68-10.62 330.86-9.45 330.94-8.59 331.01-7.74 331.12-6.56 331.23-5.37 331.3-4.69L331.3-4.69 331.3-2.54Q331.38-2.15 331.75-1.44 332.13-0.73 332.23-0.39L332.23-0.39Q332.23 0.1 332.04 0.1ZM311.53-26.37L311.53-26.37Q311.53-24.9 311.55-24.19 311.58-23.49 311.82-22.34 312.06-21.19 312.55-20.7L312.55-20.7Q313.58-20.7 314.49-20.92 315.41-21.14 316.26-21.63 317.12-22.12 317.62-23.08 318.12-24.05 318.12-25.39L318.12-25.39Q318.12-26.15 317.85-26.72 317.58-27.29 317.07-27.64 316.56-27.98 316.06-28.19 315.56-28.39 314.84-28.48 314.12-28.56 313.7-28.59 313.29-28.61 312.7-28.61L312.7-28.61 312.11-28.61Q311.75-28.44 311.64-27.93 311.53-27.42 311.53-26.37Z" opacity="1" transform="matrix(1,0,0,1,0,0)" fill="#1ebbd7" class="undefined-p-1"></path></svg></g></svg></g></svg></g><g transform="matrix(1,0,0,1,269.50886280767054,72.98939824218749)"><svg viewBox="0 0 258.9345765144594 24.17080078125" height="24.17080078125" width="258.9345765144594"><g transform="matrix(1,0,0,1,0,0)"><svg width="258.9345765144594" viewBox="-0.48000001907348633 -37.5 531.2999877929688 49.599998474121094" height="24.17080078125" data-palette-color="#1ebbd7"><path d="M17.3 0L11.85 0 11.85-14.73-0.48-35 5.6-35 15.83-17.68 13.28-17.68 23.53-35 29.6-35 17.3-14.73 17.3 0ZM38.9 0.5L38.9 0.5Q34.97 0.5 32.19-1.24 29.4-2.98 27.93-5.89 26.47-8.8 26.47-12.33L26.47-12.33Q26.47-15.88 27.93-18.8 29.4-21.73 32.19-23.46 34.97-25.2 38.9-25.2L38.9-25.2Q42.85-25.2 45.63-23.46 48.42-21.73 49.88-18.8 51.35-15.88 51.35-12.33L51.35-12.33Q51.35-8.8 49.88-5.89 48.42-2.98 45.63-1.24 42.85 0.5 38.9 0.5ZM38.9-3.98L38.9-3.98Q42.35-3.98 44.19-6.23 46.02-8.47 46.02-12.33L46.02-12.33Q46.02-16.2 44.19-18.48 42.35-20.75 38.9-20.75L38.9-20.75Q35.5-20.75 33.65-18.48 31.8-16.2 31.8-12.33L31.8-12.33Q31.8-8.47 33.65-6.23 35.5-3.98 38.9-3.98ZM65.32 0.5L65.32 0.5Q62 0.5 59.85-0.83 57.7-2.15 56.65-4.67 55.6-7.2 55.6-10.8L55.6-10.8 55.6-24.7 60.82-24.7 60.82-11.53Q60.82-7.8 62.08-5.9 63.35-4 66.22-4L66.22-4Q68.3-4 69.91-5 71.52-6 72.3-8.05L72.3-8.05 71.45-5.3 71.45-24.7 76.67-24.7 76.67 0 71.92 0 71.27-4.6 72.52-3.4Q71.45-1.6 69.61-0.55 67.77 0.5 65.32 0.5ZM88.04 0L82.64 0 82.64-24.7 87.24-24.7 87.62-21.25Q89.12-23.05 90.83-24.13 92.54-25.2 94.54-25.2L94.54-25.2Q95.14-25.2 95.67-25.08L95.67-25.08 95.22-19.65Q94.79-19.75 94.36-19.8 93.92-19.85 93.44-19.85L93.44-19.85Q91.64-19.85 90.16-19.04 88.67-18.23 88.04-17.2L88.04-17.2 88.04 0ZM121.39 0.5L121.39 0.5Q117.19 0.5 114.33-1.23 111.46-2.95 110.01-5.84 108.56-8.72 108.56-12.25L108.56-12.25Q108.56-15.88 109.99-18.81 111.41-21.75 114.31-23.48 117.21-25.2 121.69-25.2L121.69-25.2Q123.69-25.2 125.39-24.79 127.09-24.38 128.39-23.7L128.39-23.7 127.76-19.3Q126.49-19.93 124.99-20.31 123.49-20.7 121.89-20.7L121.89-20.7Q118.01-20.7 115.95-18.45 113.89-16.2 113.89-12.38L113.89-12.38Q113.89-8.65 115.91-6.3 117.94-3.95 121.81-3.95L121.81-3.95Q123.41-3.95 124.93-4.36 126.44-4.78 127.81-5.5L127.81-5.5 128.39-1.2Q127.26-0.5 125.38 0 123.49 0.5 121.39 0.5ZM138.29 0.5L138.29 0.5Q136.14 0.5 134.46-0.41 132.79-1.33 131.82-2.95 130.86-4.58 130.86-6.78L130.86-6.78Q130.86-8.88 131.81-10.36 132.76-11.85 134.34-12.85 135.91-13.85 137.8-14.44 139.69-15.03 141.64-15.3 143.59-15.58 145.26-15.6L145.26-15.6Q145.24-18.53 144.01-19.56 142.79-20.6 140.29-20.6L140.29-20.6Q138.79-20.6 137.21-20.16 135.64-19.73 133.66-18.53L133.66-18.53 133.06-22.78Q134.86-23.88 137.09-24.53 139.31-25.18 141.69-25.18L141.69-25.18Q144.66-25.18 146.61-24.13 148.56-23.08 149.54-20.65 150.51-18.23 150.51-14.15L150.51-14.15 150.51-8.4Q150.51-6.6 150.67-5.59 150.84-4.58 151.39-4.15 151.94-3.73 153.06-3.73L153.06-3.73 153.66-3.73 153.01 0.5 151.86 0.5Q150.01 0.5 148.87 0.1 147.74-0.3 147.04-1.04 146.34-1.78 145.86-2.8L145.86-2.8Q144.54-1.3 142.57-0.4 140.61 0.5 138.29 0.5ZM139.89-3.6L139.89-3.6Q141.29-3.6 142.77-4.3 144.26-5 145.29-6.25L145.29-6.25 145.29-12.05Q142.49-11.93 140.47-11.39 138.46-10.85 137.37-9.78 136.29-8.7 136.29-7.03L136.29-7.03Q136.29-5.23 137.24-4.41 138.19-3.6 139.89-3.6ZM162.31 12.1L157.08 12.1 157.08-24.7 161.23-24.7 162.21-19.73 160.71-20.53Q162.31-22.65 164.48-23.91 166.66-25.18 169.81-25.18L169.81-25.18Q173.28-25.18 175.73-23.44 178.18-21.7 179.46-18.79 180.73-15.88 180.73-12.33L180.73-12.33Q180.73-8.8 179.5-5.89 178.26-2.98 175.83-1.24 173.41 0.5 169.81 0.5L169.81 0.5Q166.88 0.5 164.75-0.54 162.61-1.58 161.21-3.73L161.21-3.73 162.31-4.75 162.31 12.1ZM168.91-3.98L168.91-3.98Q171.96-3.98 173.67-6.23 175.38-8.47 175.38-12.33L175.38-12.33Q175.38-16.2 173.67-18.45 171.96-20.7 168.91-20.7L168.91-20.7Q166.83-20.7 165.3-19.73 163.76-18.75 162.9-16.89 162.03-15.03 162.03-12.33L162.03-12.33Q162.03-9.58 162.9-7.73 163.76-5.88 165.3-4.93 166.83-3.98 168.91-3.98ZM197.48 0.5L193.26 0.5Q190.93 0.5 189.49-0.4 188.06-1.3 187.39-2.7 186.73-4.1 186.73-5.65L186.73-5.65 186.73-20.53 182.81-20.53 183.28-24.7 186.73-24.7 186.73-30.53 191.96-31.08 191.96-24.7 198.01-24.7 198.01-20.53 191.96-20.53 191.96-8.3Q191.96-6.15 192.21-5.19 192.46-4.23 193.43-3.98 194.41-3.73 196.53-3.73L196.53-3.73 197.93-3.73 197.48 0.5ZM213.2 0.5L213.2 0.5Q209 0.5 206.14-1.23 203.28-2.95 201.83-5.84 200.38-8.72 200.38-12.25L200.38-12.25Q200.38-15.88 201.8-18.81 203.23-21.75 206.13-23.48 209.03-25.2 213.5-25.2L213.5-25.2Q215.5-25.2 217.2-24.79 218.9-24.38 220.2-23.7L220.2-23.7 219.58-19.3Q218.3-19.93 216.8-20.31 215.3-20.7 213.7-20.7L213.7-20.7Q209.83-20.7 207.77-18.45 205.7-16.2 205.7-12.38L205.7-12.38Q205.7-8.65 207.73-6.3 209.75-3.95 213.63-3.95L213.63-3.95Q215.23-3.95 216.74-4.36 218.25-4.78 219.63-5.5L219.63-5.5 220.2-1.2Q219.08-0.5 217.19 0 215.3 0.5 213.2 0.5ZM229.73 0L224.48 0 224.48-37.5 229.73-37.5 229.73-20.73 228.23-21.25Q229.88-22.95 231.81-24.06 233.75-25.18 236.63-25.18L236.63-25.18Q239.85-25.18 241.95-23.74 244.05-22.3 245.08-19.73 246.1-17.15 246.1-13.75L246.1-13.75 246.1 0 240.88 0 240.88-13.25Q240.88-17.07 239.55-18.89 238.23-20.7 235.38-20.7L235.38-20.7Q233.1-20.7 231.49-19.55 229.88-18.4 228.83-16.48L228.83-16.48 229.73-19.48 229.73 0ZM257.4 0.5L257.4 0.5Q255.25 0.5 253.57-0.41 251.9-1.33 250.94-2.95 249.97-4.58 249.97-6.78L249.97-6.78Q249.97-8.88 250.92-10.36 251.87-11.85 253.45-12.85 255.02-13.85 256.91-14.44 258.8-15.03 260.75-15.3 262.7-15.58 264.37-15.6L264.37-15.6Q264.35-18.53 263.12-19.56 261.9-20.6 259.4-20.6L259.4-20.6Q257.9-20.6 256.32-20.16 254.75-19.73 252.77-18.53L252.77-18.53 252.17-22.78Q253.97-23.88 256.2-24.53 258.42-25.18 260.8-25.18L260.8-25.18Q263.77-25.18 265.72-24.13 267.67-23.08 268.65-20.65 269.62-18.23 269.62-14.15L269.62-14.15 269.62-8.4Q269.62-6.6 269.79-5.59 269.95-4.58 270.5-4.15 271.05-3.73 272.17-3.73L272.17-3.73 272.77-3.73 272.12 0.5 270.97 0.5Q269.12 0.5 267.99 0.1 266.85-0.3 266.15-1.04 265.45-1.78 264.97-2.8L264.97-2.8Q263.65-1.3 261.69-0.4 259.72 0.5 257.4 0.5ZM259-3.6L259-3.6Q260.4-3.6 261.89-4.3 263.37-5 264.4-6.25L264.4-6.25 264.4-12.05Q261.6-11.93 259.59-11.39 257.57-10.85 256.49-9.78 255.4-8.7 255.4-7.03L255.4-7.03Q255.4-5.23 256.35-4.41 257.3-3.6 259-3.6ZM299.34 0.5L299.34 0.5Q294.92 0.5 291.94-1.29 288.97-3.08 287.46-6.04 285.94-9 285.94-12.53L285.94-12.53Q285.94-15.95 287.36-18.82 288.77-21.7 291.48-23.44 294.19-25.18 298.04-25.18L298.04-25.18Q301.32-25.18 303.72-23.85 306.12-22.53 307.41-20.15 308.69-17.78 308.69-14.6L308.69-14.6Q308.69-13.95 308.63-13.25 308.57-12.55 308.42-11.78L308.42-11.78 291.34-11.78Q291.67-8.85 292.89-7.14 294.12-5.43 295.94-4.7 297.77-3.98 299.89-3.98L299.89-3.98Q301.79-3.98 303.64-4.41 305.49-4.85 307.12-5.68L307.12-5.68 307.59-1.4Q306.17-0.73 304.09-0.11 302.02 0.5 299.34 0.5ZM291.64-15.35L291.64-15.35 303.34-15.35Q303.34-16.82 302.79-18.04 302.24-19.25 301.06-19.98 299.87-20.7 297.99-20.7L297.99-20.7Q295.24-20.7 293.73-19.25 292.22-17.8 291.64-15.35ZM324.84 0L319.69 0 310.24-24.7 315.72-24.7 322.27-6.13 328.79-24.7 334.27-24.7 324.84 0ZM349.01 0.5L349.01 0.5Q344.59 0.5 341.61-1.29 338.64-3.08 337.13-6.04 335.61-9 335.61-12.53L335.61-12.53Q335.61-15.95 337.03-18.82 338.44-21.7 341.15-23.44 343.86-25.18 347.71-25.18L347.71-25.18Q350.99-25.18 353.39-23.85 355.79-22.53 357.08-20.15 358.36-17.78 358.36-14.6L358.36-14.6Q358.36-13.95 358.3-13.25 358.24-12.55 358.09-11.78L358.09-11.78 341.01-11.78Q341.34-8.85 342.56-7.14 343.79-5.43 345.61-4.7 347.44-3.98 349.56-3.98L349.56-3.98Q351.46-3.98 353.31-4.41 355.16-4.85 356.79-5.68L356.79-5.68 357.26-1.4Q355.84-0.73 353.76-0.11 351.69 0.5 349.01 0.5ZM341.31-15.35L341.31-15.35 353.01-15.35Q353.01-16.82 352.46-18.04 351.91-19.25 350.73-19.98 349.54-20.7 347.66-20.7L347.66-20.7Q344.91-20.7 343.4-19.25 341.89-17.8 341.31-15.35ZM368.19 0L362.79 0 362.79-24.7 367.39-24.7 367.76-21.25Q369.26-23.05 370.97-24.13 372.69-25.2 374.69-25.2L374.69-25.2Q375.29-25.2 375.81-25.08L375.81-25.08 375.36-19.65Q374.94-19.75 374.5-19.8 374.06-19.85 373.59-19.85L373.59-19.85Q371.79-19.85 370.3-19.04 368.81-18.23 368.19-17.2L368.19-17.2 368.19 0ZM386.31 12.1L380.81 12.1 386.41-1.33 376.13-24.7 381.93-24.7 389.06-7.4 395.78-24.7 401.58-24.7 386.31 12.1ZM414.83 0L409.71 0 402.38-24.7 408.01-24.7 412.53-6.05 417.53-24.08 422.41-24.08 427.41-6.05 431.96-24.7 437.58-24.7 430.21 0 425.11 0 419.98-17.32 414.83 0ZM446.28 0L441.03 0 441.03-37.5 446.28-37.5 446.28-20.73 444.78-21.25Q446.43-22.95 448.37-24.06 450.3-25.18 453.18-25.18L453.18-25.18Q456.4-25.18 458.5-23.74 460.6-22.3 461.63-19.73 462.65-17.15 462.65-13.75L462.65-13.75 462.65 0 457.43 0 457.43-13.25Q457.43-17.07 456.1-18.89 454.78-20.7 451.93-20.7L451.93-20.7Q449.65-20.7 448.04-19.55 446.43-18.4 445.38-16.48L445.38-16.48 446.28-19.48 446.28 0ZM480.28 0.5L480.28 0.5Q475.85 0.5 472.88-1.29 469.9-3.08 468.39-6.04 466.88-9 466.88-12.53L466.88-12.53Q466.88-15.95 468.29-18.82 469.7-21.7 472.41-23.44 475.13-25.18 478.98-25.18L478.98-25.18Q482.25-25.18 484.65-23.85 487.05-22.53 488.34-20.15 489.63-17.78 489.63-14.6L489.63-14.6Q489.63-13.95 489.56-13.25 489.5-12.55 489.35-11.78L489.35-11.78 472.28-11.78Q472.6-8.85 473.83-7.14 475.05-5.43 476.88-4.7 478.7-3.98 480.83-3.98L480.83-3.98Q482.73-3.98 484.58-4.41 486.43-4.85 488.05-5.68L488.05-5.68 488.53-1.4Q487.1-0.73 485.03-0.11 482.95 0.5 480.28 0.5ZM472.58-15.35L472.58-15.35 484.28-15.35Q484.28-16.82 483.73-18.04 483.18-19.25 481.99-19.98 480.8-20.7 478.93-20.7L478.93-20.7Q476.18-20.7 474.66-19.25 473.15-17.8 472.58-15.35ZM499.45 0L494.05 0 494.05-24.7 498.65-24.7 499.02-21.25Q500.52-23.05 502.24-24.13 503.95-25.2 505.95-25.2L505.95-25.2Q506.55-25.2 507.07-25.08L507.07-25.08 506.62-19.65Q506.2-19.75 505.76-19.8 505.32-19.85 504.85-19.85L504.85-19.85Q503.05-19.85 501.56-19.04 500.07-18.23 499.45-17.2L499.45-17.2 499.45 0ZM521.47 0.5L521.47 0.5Q517.05 0.5 514.07-1.29 511.1-3.08 509.58-6.04 508.07-9 508.07-12.53L508.07-12.53Q508.07-15.95 509.48-18.82 510.9-21.7 513.61-23.44 516.32-25.18 520.17-25.18L520.17-25.18Q523.45-25.18 525.85-23.85 528.25-22.53 529.53-20.15 530.82-17.78 530.82-14.6L530.82-14.6Q530.82-13.95 530.76-13.25 530.7-12.55 530.55-11.78L530.55-11.78 513.47-11.78Q513.8-8.85 515.02-7.14 516.25-5.43 518.07-4.7 519.9-3.98 522.02-3.98L522.02-3.98Q523.92-3.98 525.77-4.41 527.62-4.85 529.25-5.68L529.25-5.68 529.72-1.4Q528.3-0.73 526.22-0.11 524.15 0.5 521.47 0.5ZM513.77-15.35L513.77-15.35 525.47-15.35Q525.47-16.82 524.92-18.04 524.37-19.25 523.18-19.98 522-20.7 520.12-20.7L520.12-20.7Q517.37-20.7 515.86-19.25 514.35-17.8 513.77-15.35Z" opacity="1" transform="matrix(1,0,0,1,0,0)" fill="#1ebbd7" class="undefined-text-1" data-fill-palette-color="secondary" id="text-1"></path></svg></g></svg></g></svg></g></svg></g><g></g></svg></g><defs></defs></svg><rect width="395.52" height="48.159271945428756" fill="none" stroke="none" visibility="hidden"></rect></g></svg></g></svg>